<?xml version="1.0" encoding="UTF-8"?>
<svg version="1.1" xmlns="http://www.w3.org/2000/svg" width="1024" height="1024">
<path d="M0 0 C337.92 0 675.84 0 1024 0 C1024 337.92 1024 675.84 1024 1024 C686.08 1024 348.16 1024 0 1024 C0 686.08 0 348.16 0 0 Z " fill="#FCFCFC" transform="translate(0,0)"/>
<path d="M0 0 C2.39128432 0.00664267 4.78258035 0.0098684 7.1738739 0.00984192 C12.1680476 0.01910486 17.16075673 0.05819661 22.15454102 0.12084961 C28.55152894 0.20031593 34.94707713 0.22250864 41.34451008 0.22469616 C46.27485627 0.22966963 51.20489516 0.25594191 56.1351223 0.28957558 C58.49418866 0.30479925 60.85328887 0.3154844 63.21239662 0.32152367 C66.50586624 0.33491784 69.7979369 0.37482483 73.09106445 0.42260742 C74.54760437 0.42224487 74.54760437 0.42224487 76.03356934 0.421875 C83.05986754 0.56617112 86.4916682 1.9994807 91.51171875 7.01953125 C92.13762491 10.49678769 92.23488159 12.90766839 90.26171875 15.94140625 C88.42733313 18.06453776 86.50490375 20.04466596 84.51171875 22.01953125 C83.78984375 22.76589844 83.06796875 23.51226562 82.32421875 24.28125 C78.90925497 27.77328762 75.42621025 31.10858271 71.7265625 34.296875 C67.45145537 38.01273412 63.47635823 41.9774574 59.51171875 46.01953125 C54.98193162 50.63779078 50.38212391 55.05150405 45.48046875 59.2734375 C42.17433774 62.20566083 39.1025421 65.36363794 36.01171875 68.51953125 C32.31633927 72.29270819 28.61269111 75.98195054 24.60546875 79.42578125 C20.00441753 83.39312803 15.76901672 87.68958314 11.51171875 92.01953125 C3.08979918 100.58516959 3.08979918 100.58516959 -1.45703125 104.48828125 C-6.21994639 108.58155882 -10.58542251 113.04600062 -14.98828125 117.51953125 C-20.01762757 122.62960544 -25.06896742 127.59315617 -30.50976562 132.26367188 C-34.16931718 135.51138841 -37.56126082 139.03008786 -40.98828125 142.51953125 C-45.75196549 147.3699857 -50.57002587 152.04364781 -55.72460938 156.47851562 C-57.91799249 158.39499323 -59.96061524 160.42947552 -61.98828125 162.51953125 C-65.3821735 165.96007494 -68.89149468 169.16822027 -72.55859375 172.3125 C-75.67856041 175.07247051 -78.5771813 178.04294959 -81.48828125 181.01953125 C-77.16791966 186.18377557 -72.63597956 191.01022069 -67.86405945 195.75727844 C-66.74261818 196.878943 -66.74261818 196.878943 -65.59852153 198.02326745 C-63.10670364 200.51439393 -60.61133612 203.00193336 -58.1159668 205.48950195 C-56.32340119 207.2801474 -54.53106386 209.07102139 -52.73893738 210.86210632 C-48.88699145 214.71089642 -45.03355582 218.5581852 -41.17880821 222.40416908 C-35.60399016 227.96640561 -30.03243698 233.53190346 -24.46175847 239.09828546 C-15.42019226 248.13279512 -6.37675887 257.16543309 2.66821289 266.1965332 C3.20884946 266.73634196 3.74948603 267.27615072 4.30650552 267.83231732 C8.14569476 271.66560387 11.98495044 275.49882389 15.82421875 279.33203125 C20.21855438 283.71943383 24.61285612 288.10687034 29.00708008 292.49438477 C29.54857153 293.03504809 30.09006298 293.57571141 30.64796326 294.13275848 C39.66629476 303.1374195 48.68267417 312.14403269 57.69765443 321.15204877 C63.2575896 326.70749783 68.81930016 332.26115826 74.38329347 337.812543 C78.63862147 342.05847473 82.8914331 346.30691749 87.14330864 350.55630684 C88.89163685 352.30275516 90.64083308 354.048335 92.39093781 355.79300308 C94.77038719 358.16529008 97.14678375 360.54059286 99.52241516 362.91670227 C100.22356219 363.61425434 100.92470922 364.31180641 101.64710313 365.03049642 C102.27937198 365.66413962 102.91164083 366.29778282 103.56306934 366.95062733 C104.38693031 367.7731056 104.38693031 367.7731056 105.22743493 368.6121996 C107.14907132 370.71794887 107.50560063 371.96446816 107.82421875 374.83203125 C107.43825582 378.76885313 106.27775196 380.25349804 103.51171875 383.01953125 C100.81885026 383.91715408 99.22036836 384.15529618 96.45309448 384.18688965 C95.62897568 384.19838043 94.80485687 384.20987122 93.95576477 384.22171021 C93.05496689 384.22911224 92.15416901 384.23651428 91.22607422 384.24414062 C90.27448929 384.2555307 89.32290436 384.26692078 88.34248352 384.27865601 C78.38953732 384.38928267 68.43585329 384.43673225 58.48242188 384.47949219 C53.76232518 384.50176101 49.04301989 384.54352243 44.32324219 384.60253906 C38.62032608 384.67370626 32.9181544 384.71033616 27.21481705 384.72261047 C25.04511584 384.73299747 22.87543653 384.75538915 20.70598984 384.79020691 C17.6610271 384.83654521 14.61896916 384.8383978 11.57373047 384.83007812 C10.68507797 384.85367401 9.79642548 384.8772699 8.88084412 384.90158081 C1.58456195 384.80556388 -2.26758734 381.90788287 -7.48828125 377.01953125 C-8.14617519 376.41153309 -8.80406914 375.80353493 -9.48189926 375.17711258 C-11.49803056 373.2604296 -13.46429427 371.30281801 -15.4230957 369.32763672 C-16.15925613 368.59337463 -16.89541656 367.85911255 -17.65388489 367.1026001 C-20.05800793 364.70214723 -22.45491301 362.29463146 -24.8515625 359.88671875 C-26.53269007 358.20439741 -28.21418931 356.52244739 -29.89604187 354.84085083 C-33.4065421 351.32879237 -36.9136751 347.81341812 -40.41821289 344.29541016 C-44.90649295 339.79009542 -49.4013733 335.29143714 -53.89855671 330.79501152 C-57.36553358 327.32776264 -60.82989758 323.85791312 -64.29338646 320.38718033 C-65.9501704 318.72721945 -67.60755607 317.06785892 -69.26555824 315.40911484 C-71.57971115 313.09279064 -73.89054002 310.77320163 -76.20043945 308.45263672 C-76.88257507 307.77095428 -77.56471069 307.08927185 -78.26751709 306.38693237 C-81.56342971 303.06877651 -84.61976297 299.72347503 -87.48828125 296.01953125 C-88.70515341 294.87912352 -89.95380365 293.77150914 -91.234375 292.703125 C-95.54018578 289.01741478 -99.55607076 285.09998933 -103.55078125 281.08203125 C-104.21916016 280.41751953 -104.88753906 279.75300781 -105.57617188 279.06835938 C-106.23939453 278.40384766 -106.90261719 277.73933594 -107.5859375 277.0546875 C-108.16867432 276.47082275 -108.75141113 275.88695801 -109.35180664 275.28540039 C-111.16788685 273.35933018 -112.8933474 271.39549028 -114.61811829 269.38870239 C-118.4257751 265.03055329 -122.44615702 260.92750882 -126.54736328 256.84692383 C-127.32063965 256.07350143 -128.09391602 255.30007904 -128.890625 254.5032196 C-131.42341568 251.97112025 -133.95972121 249.4425735 -136.49609375 246.9140625 C-138.26794991 245.14407418 -140.03958337 243.3738629 -141.81100464 241.60343933 C-145.98559372 237.43226636 -150.16239904 233.26332329 -154.34031284 229.09548062 C-159.54685774 223.90121673 -164.74995018 218.70349876 -169.953125 213.50585938 C-177.58919866 205.87856162 -185.22700658 198.25300572 -192.86703491 190.62966919 C-194.16966733 189.32984695 -195.47167516 188.02939829 -196.772892 186.72815895 C-197.85879321 185.64653803 -198.94914999 184.5693564 -200.04555893 183.49838829 C-202.97366309 180.62885111 -204.29158322 179.03407897 -205.08203125 174.95703125 C-204.16857202 168.89935424 -200.34343967 166.08798645 -195.98828125 162.01953125 C-195.19679688 161.25125 -194.4053125 160.48296875 -193.58984375 159.69140625 C-189.92283833 156.15665349 -186.18422225 152.7261559 -182.33203125 149.39453125 C-178.53288271 146.10673371 -175.00143967 142.60819873 -171.48828125 139.01953125 C-167.34564377 134.82882519 -163.17888198 130.79262497 -158.67578125 126.98828125 C-154.83761831 123.5339346 -151.26108073 119.81096236 -147.62988281 116.14160156 C-144.01373987 112.50209097 -140.32816647 109.03789567 -136.41015625 105.72265625 C-133.99854193 103.58553462 -131.75288868 101.31158846 -129.48828125 99.01953125 C-126.65338126 96.15026884 -123.81707466 93.37466414 -120.73828125 90.76953125 C-116.11340719 86.82146803 -111.90898654 82.46575122 -107.63525391 78.14697266 C-103.97432981 74.46235964 -100.24284276 70.94786206 -96.27734375 67.58984375 C-93.5418837 65.18885043 -91.03306797 62.57279714 -88.48046875 59.98046875 C-86.58501051 58.11474319 -84.6338139 56.3729387 -82.61328125 54.64453125 C-79.42145616 51.90331676 -76.44525148 49.01267237 -73.48828125 46.01953125 C-69.92468142 42.41233998 -66.26903269 39.02475236 -62.41796875 35.73046875 C-59.64583124 33.27258165 -57.08277436 30.62329521 -54.484375 27.984375 C-52.56720948 26.09722381 -50.59252803 24.3326775 -48.55078125 22.58203125 C-45.61089286 20.05967564 -42.87848037 17.41936647 -40.17578125 14.64453125 C-39.44497849 13.93237961 -38.71417572 13.22022797 -37.96122742 12.48649597 C-35.49527582 10.09872613 -35.49527582 10.09872613 -33.48518372 7.63496399 C-24.22351237 -1.96047255 -12.44980612 -0.1927389 0 0 Z " fill="#FDB316" transform="translate(628.48828125,302.98046875)"/>
<path d="M0 0 C4.62862329 2.22529966 7.88289194 5.72497588 11.38671875 9.4140625 C13.11481375 11.21212401 13.11481375 11.21212401 16 13 C16 13.66 16 14.32 16 15 C16.83701761 15.34925018 16.83701761 15.34925018 17.69094467 15.70555592 C20.59801227 17.33524249 22.59086783 19.348521 24.94488525 21.71110535 C25.42860116 22.19381797 25.91231706 22.67653059 26.41069102 23.17387086 C28.02890975 24.7911377 29.63987468 26.41544057 31.25097656 28.03979492 C32.41054796 29.20156787 33.57056802 30.36289315 34.73100281 31.52380371 C37.2291708 34.02490542 39.72414839 36.52913215 42.21671295 39.0358181 C46.16275372 43.00413976 50.11588354 46.96534813 54.07000732 50.9256134 C60.32922763 57.19621945 66.58376094 63.47147665 72.83627009 69.74877387 C84.01709967 80.97386538 95.20340541 92.19349258 106.39505172 103.40779954 C110.31934629 107.3404713 114.24081342 111.27593425 118.15998793 115.21370828 C120.6072872 117.67170812 123.05666313 120.12763101 125.5065403 122.58306122 C126.63610404 123.71607356 127.76479636 124.8499555 128.89251518 125.98480415 C134.21917952 131.34437926 139.54407007 136.65122852 145.31316757 141.54201221 C148.33135707 144.1507381 151.12790007 146.9830909 153.9375 149.8125 C154.51306641 150.38419922 155.08863281 150.95589844 155.68164062 151.54492188 C160.91181192 156.78741395 160.91181192 156.78741395 161.25 161.4375 C161 165 161 165 159.6875 166.875 C155.50107486 169.66595009 150.92756412 169.14819756 146.10650635 169.14717102 C144.72574563 169.15268605 144.72574563 169.15268605 143.31709075 169.1583125 C140.21952627 169.1693629 137.12199532 169.17319547 134.02441406 169.17700195 C131.80875542 169.18326554 129.59309784 169.18991224 127.37744141 169.19691467 C121.34841936 169.21433315 115.31940525 169.22487859 109.29036427 169.2331202 C105.52517623 169.23826819 101.75999067 169.24434399 97.99480438 169.25063133 C87.56856233 169.26750125 77.14232186 169.28213641 66.71606827 169.28938007 C64.01090748 169.29128994 61.3057467 169.29321027 58.60058594 169.29516602 C57.59206655 169.29589163 57.59206655 169.29589163 56.56317303 169.2966319 C45.67194303 169.30493197 34.78082287 169.33026903 23.88964084 169.36274669 C12.70578367 169.39582502 1.52196625 169.41349678 -9.66194367 169.41702431 C-15.94047137 169.41937724 -22.21882542 169.42836956 -28.49730682 169.45348549 C-34.40375611 169.4767313 -40.30991701 169.48101334 -46.21640015 169.47072411 C-48.38397428 169.4702278 -50.55156245 169.47657597 -52.71909332 169.49028015 C-55.67926623 169.5079483 -58.63839845 169.50091754 -61.59857178 169.48774719 C-62.45548984 169.49871644 -63.31240791 169.50968568 -64.19529319 169.52098733 C-70.76421461 169.45046967 -75.01154472 167.76416959 -79.92578125 163.21875 C-80.38339844 162.6515625 -80.84101563 162.084375 -81.3125 161.5 C-81.78300781 160.9328125 -82.25351562 160.365625 -82.73828125 159.78125 C-85.91878963 155.29112052 -86.3015106 151.5837213 -86.30639648 146.14550781 C-86.31472 145.35798126 -86.32304352 144.57045471 -86.33161926 143.75906372 C-86.35570188 141.15703371 -86.36449016 138.55525462 -86.37109375 135.953125 C-86.38006297 134.13954596 -86.38918487 132.32596767 -86.39845276 130.51239014 C-86.41494168 126.70941369 -86.42264242 122.90652526 -86.42553711 119.10351562 C-86.43091402 114.24339393 -86.46856562 109.38410611 -86.51428127 104.52421951 C-86.54410915 100.77684555 -86.55126194 97.02967075 -86.55226326 93.28218842 C-86.55645591 91.49130188 -86.56885173 89.70041423 -86.58978081 87.90964508 C-86.70308813 77.37404761 -86.7700804 69.99290871 -79.078125 62.00390625 C-78.47484375 61.52824219 -77.8715625 61.05257812 -77.25 60.5625 C-74.15993951 58.01261926 -71.30698649 55.36022244 -68.5 52.5 C-65.11758601 49.0711721 -61.61929558 45.87951482 -57.96484375 42.74609375 C-55.18575486 40.2764064 -52.61139504 37.62096678 -50.00390625 34.97265625 C-47.41753849 32.42662171 -44.6846472 30.07978443 -41.93359375 27.71484375 C-40.04505403 26.03995701 -38.26844352 24.30052413 -36.5 22.5 C-33.56505137 19.51888364 -30.49417505 16.76684415 -27.32421875 14.0390625 C-23.83235679 10.97561386 -20.43349717 7.81148545 -17.03637695 4.64355469 C-11.49735363 -0.48272876 -7.44016465 -0.7397891 0 0 Z " fill="#D51216" transform="translate(385,518)"/>
<path d="M0 0 C0.81689806 -0.00508782 1.63379612 -0.01017564 2.47544867 -0.01541764 C5.20437976 -0.03107561 7.9332845 -0.03964934 10.6622467 -0.04811096 C12.62219406 -0.05765437 14.58213976 -0.06754575 16.54208374 -0.07775879 C22.96891802 -0.10907249 29.39576499 -0.12939514 35.82264709 -0.14796448 C36.9166669 -0.1512618 38.01068671 -0.15455912 39.13785863 -0.15795636 C49.45629127 -0.18872136 59.7747269 -0.21542388 70.0931921 -0.23237514 C83.28535605 -0.25430391 96.47711424 -0.29634292 109.66911596 -0.36581272 C118.94994669 -0.41302739 128.23066778 -0.43730487 137.51161486 -0.44457203 C143.05357283 -0.44952977 148.59507272 -0.46462427 154.13689995 -0.50431633 C159.34831186 -0.54115362 164.55900343 -0.54960176 169.77052116 -0.5363102 C171.68172079 -0.53636418 173.59295216 -0.54667605 175.50403214 -0.56806183 C178.11643178 -0.59573105 180.72620138 -0.58624238 183.33862305 -0.56762695 C184.0923301 -0.58442188 184.84603715 -0.60121681 185.62258381 -0.61852068 C190.82804981 -0.52601154 193.55644898 1.04014632 197.41121203 4.49531406 C199.28598732 6.85768719 199.69848902 9.11656485 199.40467834 12.09422302 C197.10467934 19.16805716 189.52109507 24.26757931 184.14686584 29.00047302 C182.05717289 30.87037627 180.06944738 32.78367749 178.10780334 34.78562927 C175.11245389 37.83722942 171.93973169 40.62081409 168.70155334 43.41062927 C166.22614413 45.61099302 163.92483177 47.95541045 161.60609436 50.31834412 C159.80686176 52.08779664 157.95450704 53.74231624 156.04139709 55.38719177 C151.6938804 59.16790186 147.48349263 63.07993189 143.29530334 67.03562927 C142.17780701 68.08835022 142.17780701 68.08835022 141.03773499 69.16233826 C136.48460812 73.46475214 132.01945646 77.83811122 127.62342834 82.30125427 C125.78283681 84.11142281 123.88332455 85.79737947 121.92030334 87.47312927 C118.34381545 90.53563088 115.0389023 93.81342886 111.73280334 97.16062927 C107.8602349 101.08128176 103.92488087 104.81467122 99.72499084 108.38719177 C96.3909651 111.35512842 93.3101985 114.57618197 90.17420959 117.75047302 C87.46077607 120.42917459 84.62503312 122.90671045 81.72889709 125.38328552 C79.47147708 127.39331704 77.35544622 129.5089588 75.23280334 131.66062927 C72.52476769 134.40563469 69.79111085 137.03333838 66.85780334 139.53562927 C62.54588088 143.22910867 58.60208269 147.25835524 54.63905334 151.31687927 C51.81218039 154.1477741 48.80394868 156.74785509 45.78114319 159.36619568 C42.54652488 162.19986011 39.42240287 165.1469116 36.29530334 168.09812927 C35.2715863 169.06093811 35.2715863 169.06093811 34.22718811 170.04319763 C32.06109064 172.08096302 29.89682193 174.12065653 27.73280334 176.16062927 C26.30321033 177.50708376 24.87352326 178.85343841 23.44374084 180.19969177 C22.73749573 180.86468689 22.03125061 181.52968201 21.30360413 182.21482849 C18.48181785 184.8712732 15.65942968 187.52707651 12.83631897 190.18211365 C11.42056817 191.5137344 10.00521072 192.84577347 8.59022522 194.1782074 C6.53552782 196.11192906 4.47826739 198.0428852 2.42030334 199.97312927 C1.49592468 200.84433411 1.49592468 200.84433411 0.5528717 201.73313904 C-7.24137324 209.03036598 -7.24137324 209.03036598 -12.20469666 209.66062927 C-15.68315829 209.5373256 -16.27868005 209.15158915 -19.20469666 206.84812927 C-22.5110271 202.53988052 -22.41568894 198.83333869 -22.41436768 193.62710571 C-22.41988271 192.46579847 -22.41988271 192.46579847 -22.42550915 191.28103048 C-22.43654992 188.67863422 -22.44039048 186.07627788 -22.44419861 183.47386169 C-22.45046289 181.61125562 -22.45710966 179.74865081 -22.46411133 177.88604736 C-22.48152253 172.81987236 -22.49207313 167.7537068 -22.50031686 162.6875093 C-22.5054661 159.52335366 -22.51154182 156.35920095 -22.51782799 153.19504738 C-22.53687925 143.29801047 -22.55111129 133.40098103 -22.55943996 123.50392932 C-22.56921724 112.0738396 -22.59554989 100.64394328 -22.63594085 89.21392173 C-22.66608013 80.38241636 -22.6809067 71.55096652 -22.68422097 62.71941072 C-22.68657367 57.44303296 -22.69556295 52.16686183 -22.72068214 46.89053917 C-22.74392999 41.92714831 -22.74820932 36.96410063 -22.73792076 32.00066948 C-22.73742451 30.17937327 -22.7437711 28.35806035 -22.75747681 26.53681564 C-22.7751496 24.04916593 -22.76811299 21.56275404 -22.75494385 19.07510376 C-22.76591309 18.35534699 -22.77688234 17.63559022 -22.78818399 16.89402264 C-22.70947034 10.73021673 -20.1372898 7.46707749 -16.39219666 2.84812927 C-11.86448227 -0.74740862 -5.55183999 0.00866538 0 0 Z " fill="#E01A1E" transform="translate(321.26719665527344,303.83937072753906)"/>
<path d="M0 0 C4.20539287 0.00258038 8.41078386 0.00017109 12.61617684 -0.00138617 C19.65810698 -0.00318943 26.70002652 -0.00084824 33.74195504 0.00395441 C41.84412173 0.00941685 49.94626332 0.0076126 58.04842943 0.00212801 C65.06480765 -0.00242826 72.08117838 -0.00304211 79.0975576 -0.00043333 C83.26265988 0.00111268 87.42775039 0.00136935 91.59285188 -0.00196981 C95.5009524 -0.00488622 99.40902083 -0.00280459 103.31711793 0.00292444 C104.73837123 0.00423101 106.1596273 0.00389441 107.58087945 0.00166178 C116.71881769 -0.01135585 125.72527726 0.36159299 134.82911325 1.1343255 C135.41871285 3.49443293 135.41871285 3.49443293 135.82911325 6.1343255 C134.3955195 8.37260675 134.3955195 8.37260675 132.39161325 10.4468255 C131.73290231 11.14420832 131.07419137 11.84159113 130.3955195 12.56010675 C129.87860543 13.07959894 129.36169137 13.59909113 128.82911325 14.1343255 C128.49911325 13.4743255 128.16911325 12.8143255 127.82911325 12.1343255 C127.225832 12.21811457 126.62255075 12.30190363 126.00098825 12.38823175 C125.2017695 12.49006769 124.40255075 12.59190363 123.57911325 12.6968255 C122.790207 12.80123957 122.00130075 12.90565363 121.18848825 13.01323175 C118.81341486 13.13513122 117.10404068 12.75166692 114.82911325 12.1343255 C113.83911325 12.3818255 113.83911325 12.3818255 112.82911325 12.6343255 C110.82911325 13.1343255 110.82911325 13.1343255 108.82911325 12.5718255 C106.19232467 11.995028 105.16925032 12.92651282 102.82911325 14.1343255 C101.83911325 13.8043255 100.84911325 13.4743255 99.82911325 13.1343255 C97.37414657 13.19256048 97.37414657 13.19256048 94.76661325 13.5093255 C93.88876168 13.59955988 93.01091012 13.68979425 92.106457 13.782763 C89.80430587 14.01942988 89.80430587 14.01942988 87.82911325 15.1343255 C86.83911325 14.1443255 86.83911325 14.1443255 85.82911325 13.1343255 C83.02381579 13.11335575 83.02381579 13.11335575 79.89161325 13.5093255 C76.83802965 13.828412 73.90020529 14.1343255 70.82911325 14.1343255 C70.14848825 14.2993255 69.46786325 14.4643255 68.76661325 14.6343255 C65.27369214 15.22886527 61.96122684 15.16144724 58.4267695 15.0718255 C55.78289665 15.06893461 55.78289665 15.06893461 53.03861642 15.63687372 C49.90188311 16.12304666 47.04880473 16.21885089 43.87940621 16.15605402 C42.71906869 16.1359527 41.55873116 16.11585138 40.3632319 16.09514093 C39.11189462 16.0681109 37.86055734 16.04108088 36.57130075 16.01323175 C34.55371422 15.97712351 32.53612757 15.94102178 30.51853585 15.90520525 C28.37969007 15.86634011 26.24090683 15.8249491 24.1021235 15.78279352 C16.73529324 15.63781047 9.36819383 15.50861934 2.00098825 15.3843255 C1.26695401 15.37180309 0.53291978 15.35928068 -0.22335792 15.3463788 C-9.86825107 15.18440896 -19.50867446 15.09714993 -29.15526175 15.1343255 C-30.19153708 15.13810709 -31.22781241 15.14188868 -32.29549003 15.14578485 C-37.04998178 15.16730914 -41.80387464 15.20478865 -46.55809379 15.25956964 C-48.21808639 15.27133284 -49.87807983 15.28297821 -51.53807425 15.29448175 C-52.27870109 15.30797663 -53.01932792 15.3214715 -53.78239799 15.33537531 C-57.48978673 15.35378527 -58.99528898 15.25139069 -62.17088675 13.1343255 C-62.60838675 7.0093255 -62.60838675 7.0093255 -61.17088675 4.1343255 C-60.51088675 4.1343255 -59.85088675 4.1343255 -59.17088675 4.1343255 C-58.84088675 3.1443255 -58.51088675 2.1543255 -58.17088675 1.1343255 C-38.77405237 0.12837554 -19.41590638 -0.01570423 0 0 Z " fill="#F7585C" transform="translate(372.1708867549896,309.865674495697)"/>
<path d="M0 0 C1.56688316 -0.00629173 1.56688316 -0.00629173 3.16542053 -0.01271057 C4.88376602 -0.00428131 4.88376602 -0.00428131 6.63682556 0.00431824 C8.44682793 0.00147072 8.44682793 0.00147072 10.293396 -0.00143433 C13.6032573 -0.00450704 16.91286949 0.00137296 20.22270131 0.01151872 C23.68377484 0.02029741 27.14484412 0.01854182 30.60592651 0.01815796 C36.41735593 0.0190946 42.22873314 0.02777913 48.04014587 0.04142761 C54.76403875 0.05716052 61.48787447 0.06242546 68.21178442 0.06169206 C74.67508684 0.06108224 81.13837059 0.06618303 87.6016674 0.07448387 C90.35481855 0.07801907 93.1079631 0.07984746 95.86111641 0.08037758 C99.70173803 0.08156634 103.54231186 0.09126908 107.38291931 0.10197449 C108.5305072 0.1015213 109.67809509 0.10106812 110.86045837 0.1006012 C112.4231118 0.10699867 112.4231118 0.10699867 114.01733398 0.11352539 C114.92601258 0.11520123 115.83469118 0.11687708 116.77090549 0.11860371 C118.94517517 0.24723816 118.94517517 0.24723816 120.94517517 1.24723816 C122.85966834 1.40200258 124.77705214 1.5220377 126.69517517 1.62223816 C131.56374872 1.97918886 134.84749447 2.62927549 138.94517517 5.24723816 C138.94517517 5.57723816 138.94517517 5.90723816 138.94517517 6.24723816 C123.03129716 9.33452116 107.44321791 9.65461761 91.27230167 9.55141997 C87.76636662 9.53235024 84.26041923 9.53087938 80.75444031 9.52734375 C74.14995508 9.51811046 67.54562322 9.49361819 60.94120479 9.46329528 C53.40765342 9.4294755 45.87409377 9.4131968 38.3404851 9.39820898 C22.87529373 9.36705808 7.41025441 9.31447224 -8.05482483 9.24723816 C-8.24232483 5.87223816 -8.24232483 5.87223816 -8.05482483 2.24723816 C-4.76538359 0.05427733 -3.81489201 -0.00228614 0 0 Z " fill="#FB8082" transform="translate(320.05482482910156,311.7527618408203)"/>
<path d="M0 0 C0.89119537 -0.00175232 1.78239075 -0.00350464 2.70059204 -0.00531006 C5.65734789 -0.00972426 8.61404428 -0.00679159 11.57080078 -0.00341797 C13.62102266 -0.00409125 15.67124446 -0.00506148 17.72146606 -0.00631714 C22.02395384 -0.00779362 26.32642088 -0.00564157 30.62890625 -0.00097656 C36.1460479 0.00471352 41.66314083 0.00144598 47.18028069 -0.00454903 C51.41643643 -0.00816208 55.65258063 -0.00701249 59.88873672 -0.00442123 C61.9229241 -0.00375366 63.95711252 -0.0045745 65.99129868 -0.00690079 C68.8353732 -0.00943868 71.67936885 -0.00557027 74.5234375 0 C75.78755463 -0.00303635 75.78755463 -0.00303635 77.07720947 -0.00613403 C80.68437396 0.00696167 83.92005918 0.15479056 87.39111328 1.12939453 C87.14916328 6.70476401 83.62564975 9.38405573 79.82861328 13.00439453 C79.23242188 13.59091797 78.63623047 14.17744141 78.02197266 14.78173828 C74.9584935 17.76969758 71.82416607 20.63822743 68.57470703 23.42236328 C62.46948083 28.71064608 56.9260304 34.58828838 51.28564453 40.36181641 C50.42583984 41.23257813 49.56603516 42.10333984 48.68017578 43.00048828 C47.90367676 43.79382568 47.12717773 44.58716309 46.32714844 45.40454102 C44.39111328 47.12939453 44.39111328 47.12939453 42.39111328 47.12939453 C43.74169442 44.1155138 45.24716103 42.02592684 47.58642578 39.70361328 C48.21589111 39.07543701 48.84535645 38.44726074 49.49389648 37.80004883 C50.16122803 37.14560791 50.82855957 36.49116699 51.51611328 35.81689453 C52.53934692 34.80332886 52.53934692 34.80332886 53.58325195 33.76928711 C57.43612296 29.97525961 61.3521847 26.3109474 65.47705078 22.81298828 C73.28089646 16.42280233 73.28089646 16.42280233 78.39111328 8.12939453 C77.3953125 8.14679688 77.3953125 8.14679688 76.37939453 8.16455078 C75.05488281 8.17808594 75.05488281 8.17808594 73.70361328 8.19189453 C72.83349609 8.20349609 71.96337891 8.21509766 71.06689453 8.22705078 C68.39111328 8.12939453 68.39111328 8.12939453 66.12236023 7.63513184 C63.04149455 7.06465662 60.14873562 6.97519652 57.01538086 6.93994141 C55.1123394 6.91486511 55.1123394 6.91486511 53.17085266 6.88928223 C52.16081901 6.87925926 52.16081901 6.87925926 51.13038063 6.86903381 C49.00584555 6.84784737 46.88145292 6.82083378 44.75700378 6.7923584 C40.23926325 6.73285486 35.72145346 6.68068721 31.20361328 6.62939453 C25.98135212 6.56985099 20.7591599 6.50720473 15.53702354 6.43751526 C13.46007434 6.41126917 11.38311687 6.39025261 9.30610657 6.36950684 C2.28045256 6.27806606 -4.63459253 6.00718533 -11.60888672 5.12939453 C-11.23388672 3.19189453 -11.23388672 3.19189453 -10.60888672 1.12939453 C-7.30695778 -0.52156994 -3.6292928 -0.0086757 0 0 Z " fill="#FDCF4A" transform="translate(620.60888671875,312.87060546875)"/>
<path d="M0 0 C71.31833966 -0.19581972 71.31833966 -0.19581972 97.0625 0.4375 C97.90955505 0.45714813 98.75661011 0.47679626 99.6293335 0.49703979 C106.81883685 0.66968942 113.88057995 0.87582088 121 2 C120.67 2.66 120.34 3.32 120 4 C111.61332815 5.9294124 102.334926 5.34897131 93.75 5.5625 C92.53606567 5.59426834 92.53606567 5.59426834 91.29760742 5.62667847 C60.8779693 6.39370347 30.42666723 6.08572809 0 6 C0 4.02 0 2.04 0 0 Z " fill="#FCAAAA" transform="translate(313,313)"/>
<path d="M0 0 C0.33 0.99 0.66 1.98 1 3 C-0.66666667 4.66666667 -2.33333333 6.33333333 -4 8 C-4.721875 8.763125 -5.44375 9.52625 -6.1875 10.3125 C-8 12 -8 12 -10 12 C-9.77139942 13.46184058 -9.51629608 14.91955419 -9.25 16.375 C-9.11078125 17.18710937 -8.9715625 17.99921875 -8.828125 18.8359375 C-8.18966208 21.15361838 -8.18966208 21.15361838 -6.046875 22.2265625 C-5.37140625 22.48179687 -4.6959375 22.73703125 -4 23 C-3.34 23.33 -2.68 23.66 -2 24 C-2 24.66 -2 25.32 -2 26 C-1.34 26 -0.68 26 0 26 C0 26.66 0 27.32 0 28 C0.66 28 1.32 28 2 28 C3.62109375 29.6796875 3.62109375 29.6796875 5.4375 31.875 C7.58400884 34.46193722 9.16776562 36.11184374 12 38 C12.33 38.99 12.66 39.98 13 41 C14.69153744 42.71452342 14.69153744 42.71452342 16.75 44.375 C20.01104734 47.10083728 23.01871272 49.96939819 26 53 C31.92641054 59.00540163 37.80961495 64.94143392 44.25 70.40234375 C46.67125894 72.61282345 48.72386719 75.0638122 50.7734375 77.6171875 C51.97175539 79.14103109 51.97175539 79.14103109 54 80 C54 80.66 54 81.32 54 82 C54.61875 82.2475 55.2375 82.495 55.875 82.75 C58.40358627 84.23740369 58.71839004 85.43678009 60 88 C60.55945313 88.25136719 61.11890625 88.50273438 61.6953125 88.76171875 C64.98131572 90.52724929 67.31777387 93.14899118 69.875 95.8125 C72.86307634 98.90374522 75.82393408 101.91800722 79.16015625 104.63671875 C81.57809147 106.64889317 83.55300866 108.59829469 85.5625 111 C87.5951228 113.40219059 89.56578991 115.52889057 91.875 117.6875 C94.18486727 120.20117908 94.71233553 121.64391448 95 125 C90.88262323 124.47941213 89.00997586 122.34887273 86.1875 119.4375 C85.37667969 118.61121094 84.56585937 117.78492188 83.73046875 116.93359375 C81.69606602 114.78692201 79.76015357 112.57061505 77.83303833 110.32743835 C74.03812698 105.98320488 70.02875846 101.89467901 65.94091797 97.82739258 C65.1676416 97.05397018 64.39436523 96.28054779 63.59765625 95.48368835 C61.06486557 92.951589 58.52856004 90.42304225 55.9921875 87.89453125 C54.22033134 86.12454293 52.44869788 84.35433165 50.67727661 82.58390808 C46.50268753 78.41273511 42.32588221 74.24379204 38.14796841 70.07594937 C32.94142351 64.88168548 27.73833107 59.68396751 22.53515625 54.48632812 C14.89908259 46.85903037 7.26127467 39.23347447 -0.37875366 31.61013794 C-1.68138608 30.3103157 -2.98339391 29.00986704 -4.28461075 27.7086277 C-5.37051196 26.62700678 -6.46086874 25.54982515 -7.55727768 24.47885704 C-10.58180344 21.51482686 -11.85777974 20.04760459 -12.4375 15.77734375 C-11.84596893 10.67010674 -9.70462396 8.88748345 -6 5.5625 C-5.14148438 4.75135742 -5.14148438 4.75135742 -4.265625 3.92382812 C-2.85912094 2.59937013 -1.43155201 1.29734401 0 0 Z " fill="#F7AF1D" transform="translate(436,462)"/>
<path d="M0 0 C4.20539287 0.00258038 8.41078386 0.00017109 12.61617684 -0.00138617 C19.65810698 -0.00318943 26.70002652 -0.00084824 33.74195504 0.00395441 C41.84412173 0.00941685 49.94626332 0.0076126 58.04842943 0.00212801 C65.06480765 -0.00242826 72.08117838 -0.00304211 79.0975576 -0.00043333 C83.26265988 0.00111268 87.42775039 0.00136935 91.59285188 -0.00196981 C95.5009524 -0.00488622 99.40902083 -0.00280459 103.31711793 0.00292444 C104.73837123 0.00423101 106.1596273 0.00389441 107.58087945 0.00166178 C116.71881769 -0.01135585 125.72527726 0.36159299 134.82911325 1.1343255 C135.45411325 3.5093255 135.45411325 3.5093255 135.82911325 6.1343255 C135.16911325 6.7943255 134.50911325 7.4543255 133.82911325 8.1343255 C133.82911325 7.1443255 133.82911325 6.1543255 133.82911325 5.1343255 C133.16521585 5.14583643 132.50131845 5.15734735 131.81730294 5.1692071 C124.55607443 5.23467266 117.33360061 5.0229136 110.08057809 4.70122004 C75.63876026 3.19092263 41.28723331 2.8782932 6.82151699 2.99027228 C-0.40558471 3.01331331 -7.63269206 3.02379108 -14.8598218 3.03367829 C-29.63021567 3.05414304 -44.40054707 3.08891075 -59.17088675 3.1343255 C-58.84088675 2.4743255 -58.51088675 1.8143255 -58.17088675 1.1343255 C-38.77405237 0.12837554 -19.41590638 -0.01570423 0 0 Z " fill="#F53C3F" transform="translate(372.1708867549896,309.865674495697)"/>
<path d="M0 0 C0 3 0 3 -1.6171875 4.97363281 C-2.36226562 5.70936523 -3.10734375 6.44509766 -3.875 7.203125 C-4.69613281 8.01910156 -5.51726562 8.83507812 -6.36328125 9.67578125 C-7.23339844 10.52527344 -8.10351562 11.37476563 -9 12.25 C-9.83917969 13.08402344 -10.67835938 13.91804688 -11.54296875 14.77734375 C-15.9888919 19.16812367 -20.52297145 23.39524776 -25.2578125 27.47167969 C-27.61750129 29.54169816 -29.81084924 31.751683 -32 34 C-34.83486446 36.91148242 -37.73557006 39.6622537 -40.8125 42.3125 C-45.08214126 46.0133898 -49.04515888 49.96791589 -53 54 C-56.80042657 57.87465365 -60.58591555 61.69659452 -64.71875 65.21875 C-70.62929224 70.30966626 -76.02180621 75.95391476 -81.5 81.5 C-88.14795076 88.23033906 -94.78736621 94.86671084 -102 101 C-104.08121484 102.85484589 -106.13771512 104.7355243 -108.1875 106.625 C-108.72850342 107.12354492 -109.26950684 107.62208984 -109.8269043 108.13574219 C-116.05524648 113.9186266 -122.03527156 119.9474114 -128 126 C-128.66 125.67 -129.32 125.34 -130 125 C-126.87427529 121.84927872 -123.7450669 118.70206864 -120.61279297 115.55786133 C-119.55099139 114.49107703 -118.49009442 113.42339147 -117.43017578 112.35473633 C-112.08466966 106.96632483 -106.72834747 101.66591713 -100.953125 96.73266602 C-96.95083224 93.18213205 -93.25135181 89.31156613 -89.5 85.5 C-84.48072491 80.40015869 -79.43954375 75.44816517 -74.00976562 70.78710938 C-70.1669081 67.36999116 -66.60391313 63.66541335 -63 60 C-58.12341468 55.0401965 -53.20929508 50.24490656 -47.93359375 45.7109375 C-44.63648207 42.79349323 -41.58100828 39.6421378 -38.5 36.5 C-34.14503157 32.09800283 -29.78995054 27.81014063 -25.04296875 23.828125 C-21.54109385 20.6945161 -18.29181258 17.29480821 -15.03442383 13.90942383 C-13.72575818 12.56999118 -12.36653536 11.28033851 -11 10 C-10.34 10 -9.68 10 -9 10 C-8.61714844 9.11054688 -8.61714844 9.11054688 -8.2265625 8.203125 C-6.88183502 5.78775462 -5.50785633 4.48788294 -3.375 2.75 C-2.74335937 2.22921875 -2.11171875 1.7084375 -1.4609375 1.171875 C-0.97882813 0.78515625 -0.49671875 0.3984375 0 0 Z " fill="#E8D0AF" transform="translate(709,328)"/>
<path d="M0 0 C0.33 0 0.66 0 1 0 C1 1.98 1 3.96 1 6 C65.35 6.495 65.35 6.495 131 7 C127.73017263 9.17988491 126.93845394 9.20654585 123.1875 9.0625 C120.39478939 8.96291497 117.9634048 9.0065514 115.20510864 9.50035095 C112.0692994 9.98919682 109.21917139 10.08451508 106.05029297 10.02172852 C104.30978668 9.99157654 104.30978668 9.99157654 102.53411865 9.96081543 C101.28278137 9.9337854 100.03144409 9.90675537 98.7421875 9.87890625 C96.72460098 9.84279801 94.70701433 9.80669627 92.68942261 9.77087975 C90.55057682 9.7320146 88.41179358 9.69062359 86.27301025 9.64846802 C78.90618 9.50348497 71.53908058 9.37429383 64.171875 9.25 C63.43784077 9.23747759 62.70380653 9.22495518 61.94752884 9.2120533 C52.30263568 9.05008345 42.66221229 8.96282443 33.015625 9 C31.97934967 9.00378159 30.94307434 9.00756317 29.87539673 9.01145935 C25.12090498 9.03298364 20.36701212 9.07046315 15.61279297 9.12524414 C13.95280037 9.13700734 12.29280692 9.14865271 10.6328125 9.16015625 C9.89218567 9.17365112 9.15155884 9.187146 8.38848877 9.2010498 C4.68110003 9.21945976 3.17559778 9.11706519 0 7 C-0.1875 3.375 -0.1875 3.375 0 0 Z " fill="#F64348" transform="translate(310,316)"/>
<path d="M0 0 C0.33 0 0.66 0 1 0 C1 61.71 1 123.42 1 187 C1.99 187.33 2.98 187.66 4 188 C3.67 188.99 3.34 189.98 3 191 C5.31049586 193.75482198 6.57385872 194.89772609 10.125 195.75 C12.85110535 196.02887654 12.85110535 196.02887654 15 196 C15.33 195.01 15.66 194.02 16 193 C16.99 193.33 17.98 193.66 19 194 C16.15695013 196.84304987 13.99733936 198.32780773 10 198.5625 C6.57083266 198.39395869 5.94808645 197.95913189 3.0625 195.6875 C-0.25674554 191.36242248 -0.14108581 187.65059767 -0.12025452 182.42610168 C-0.12110894 181.64766346 -0.12196337 180.86922524 -0.12284368 180.06719798 C-0.12449483 177.45078133 -0.11898306 174.83442835 -0.11352539 172.21801758 C-0.11324341 170.34567771 -0.11340146 168.47333773 -0.1139679 166.60099792 C-0.11425546 161.51041919 -0.10836528 156.4198639 -0.10139394 151.32929063 C-0.09515365 146.01214608 -0.09455606 140.69500104 -0.09336853 135.37785339 C-0.09025721 125.305647 -0.0820465 115.23345144 -0.07201904 105.16124982 C-0.06085172 93.69586176 -0.05534589 82.23047319 -0.05032361 70.76508105 C-0.03986374 47.17671469 -0.02226814 23.58835795 0 0 Z " fill="#BC3E46" transform="translate(299,315)"/>
<path d="M0 0 C0.495 0.99 0.495 0.99 1 2 C0.13375 3.0209375 0.13375 3.0209375 -0.75 4.0625 C-3.08801197 6.94318141 -3.08801197 6.94318141 -4.71875 10.2734375 C-7.07515832 14.44976025 -10.19673105 17.39253382 -13.75 20.5625 C-14.37398682 21.1311377 -14.99797363 21.69977539 -15.64086914 22.28564453 C-19.36216223 25.64278769 -23.16194581 28.77187938 -27.26171875 31.66015625 C-29.90605012 33.69837122 -32.11704893 36.11656108 -34.359375 38.58203125 C-36.2423276 40.20944028 -37.59370117 40.50515629 -40 41 C-42.2072358 42.48800372 -42.2072358 42.48800372 -44 44 C-44.66 43.67 -45.32 43.34 -46 43 C-45.38253906 42.45472656 -44.76507813 41.90945313 -44.12890625 41.34765625 C-39.76323879 37.46041811 -35.48034622 33.53766345 -31.375 29.375 C-28.76936683 26.73311455 -26.14329852 24.21056499 -23.3125 21.8125 C-18.61780147 17.79928996 -14.33042112 13.38228777 -10.01098633 8.97387695 C-6.82553199 5.74197831 -3.62462653 2.75089358 0 0 Z " fill="#FBCB2A" transform="translate(531,372)"/>
<path d="M0 0 C0.33 0 0.66 0 1 0 C1 1.98 1 3.96 1 6 C15.53573158 5.93909514 30.07129478 5.86134045 44.60683155 5.76428509 C51.35807024 5.71958646 58.10925922 5.68011457 64.8605957 5.65356445 C71.39004646 5.62733484 77.91927303 5.58679682 84.4485836 5.53681374 C86.92529169 5.52027687 89.40203843 5.50868136 91.87879372 5.50238609 C106.21089438 5.46231281 119.92275926 4.79529322 134 2 C133.01 1.34 132.02 0.68 131 0 C137.13053511 -0.32712342 141.62669111 -0.39366878 147 3 C147 3.33 147 3.66 147 4 C131.08612199 7.087283 115.49804274 7.40737945 99.3271265 7.30418181 C95.82119145 7.28511209 92.31524405 7.28364122 88.80926514 7.28010559 C82.20477991 7.27087231 75.60044805 7.24638003 68.99602962 7.21605712 C61.46247825 7.18223734 53.9289186 7.16595864 46.39530993 7.15097082 C30.93011855 7.11981992 15.46507924 7.06723409 0 7 C0 4.69 0 2.38 0 0 Z " fill="#F97477" transform="translate(312,314)"/>
<path d="M0 0 C8.9983284 0.08499124 17.99648025 0.1800921 26.99456882 0.28752708 C31.17432508 0.33712692 35.35406039 0.38345476 39.53393555 0.421875 C43.5800503 0.45919333 47.6259723 0.50566757 51.67191887 0.55806351 C53.20295715 0.57636384 54.73403634 0.59155788 56.26513863 0.60334396 C66.33743692 0.68353262 76.04149098 1.43058686 86 3 C85.67 4.32 85.34 5.64 85 7 C84.505 5.515 84.505 5.515 84 4 C82.845 4.020625 81.69 4.04125 80.5 4.0625 C76.23450052 4.08233953 72.06051679 3.74610116 67.8125 3.375 C61.42502376 2.88748705 55.35958294 3.23707181 49 3.9375 C39.27843368 4.987292 29.64227795 5.23039635 19.875 5.25 C19.16424316 5.25490448 18.45348633 5.25980896 17.72119141 5.26486206 C15.68655771 5.2766742 13.6518471 5.27146744 11.6171875 5.265625 C10.43753418 5.26336914 9.25788086 5.26111328 8.04248047 5.25878906 C5.1275004 5.010845 3.45882164 4.52418184 1 3 C1.99 3 2.98 3 4 3 C4 2.34 4 1.68 4 1 C2.68 0.67 1.36 0.34 0 0 Z " fill="#FDBD22" transform="translate(613,318)"/>
<path d="M0 0 C0.74503784 0.48660851 0.74503784 0.48660851 1.50512695 0.98304749 C4.95447628 2.3890607 8.25183369 2.28378481 11.91796875 2.27124023 C13.10889633 2.27908035 13.10889633 2.27908035 14.32388306 2.28707886 C16.04481025 2.29730677 17.76576827 2.30309716 19.48672485 2.30496025 C22.21029098 2.30862441 24.93349315 2.32535136 27.65698242 2.34571838 C35.39918255 2.40113295 43.14143578 2.43184557 50.88378906 2.45629883 C55.62176422 2.47216488 60.35947977 2.50237113 65.09732056 2.54106331 C66.90261075 2.55271909 68.70794733 2.55864371 70.51327515 2.55874443 C73.03647009 2.55893628 75.55894762 2.5771866 78.08203125 2.59936523 C78.82812653 2.59478806 79.5742218 2.59021088 80.34292603 2.585495 C84.50404337 2.64370434 86.9795677 3.04010495 90 6 C89.67 7.32 89.34 8.64 89 10 C89 9.01 89 8.02 89 7 C88.00419922 7.01740234 88.00419922 7.01740234 86.98828125 7.03515625 C85.66376953 7.04869141 85.66376953 7.04869141 84.3125 7.0625 C83.44238281 7.07410156 82.57226562 7.08570313 81.67578125 7.09765625 C79 7 79 7 76.73124695 6.5057373 C73.65038127 5.93526209 70.75762234 5.84580199 67.62426758 5.81054688 C65.72122612 5.78547058 65.72122612 5.78547058 63.77973938 5.7598877 C62.76970572 5.74986473 62.76970572 5.74986473 61.73926735 5.73963928 C59.61473227 5.71845284 57.49033963 5.69143924 55.3658905 5.66296387 C50.84814996 5.60346032 46.33034018 5.55129268 41.8125 5.5 C36.59023884 5.44045646 31.36804662 5.3778102 26.14591026 5.30812073 C24.06896106 5.28187464 21.99200359 5.26085808 19.91499329 5.2401123 C12.88933927 5.14867152 5.97429418 4.8777908 -1 4 C-0.67 2.68 -0.34 1.36 0 0 Z " fill="#FDC839" transform="translate(610,314)"/>
<path d="M0 0 C7.26 0 14.52 0 22 0 C20.87463676 5.62681619 20.87463676 5.62681619 18.33984375 8.0859375 C17.79263672 8.62476563 17.24542969 9.16359375 16.68164062 9.71875 C16.10607422 10.2653125 15.53050781 10.811875 14.9375 11.375 C14.38900391 11.91382813 13.84050781 12.45265625 13.27539062 13.0078125 C10.33977768 15.86518778 7.32548517 18.59652181 4.21484375 21.26171875 C-1.89895685 26.56294891 -7.4545793 32.44814233 -13.10546875 38.23242188 C-13.96527344 39.10318359 -14.82507813 39.97394531 -15.7109375 40.87109375 C-16.48743652 41.66443115 -17.26393555 42.45776855 -18.06396484 43.27514648 C-20 45 -20 45 -22 45 C-20.64941886 41.98611927 -19.14395225 39.8965323 -16.8046875 37.57421875 C-16.17522217 36.94604248 -15.54575684 36.31786621 -14.8972168 35.6706543 C-13.89621948 34.68899292 -13.89621948 34.68899292 -12.875 33.6875 C-12.19284424 33.01178955 -11.51068848 32.3360791 -10.80786133 31.63989258 C-6.95631026 27.84716487 -3.05134912 24.1720942 1.08984375 20.6953125 C4.54131963 17.63203943 7.69923805 14.26441372 10.8984375 10.94140625 C13 9 13 9 15 9 C13.88145414 5.27385847 13.88145414 5.27385847 11 3 C8.40751328 2.72824182 5.81551489 2.55427432 3.21484375 2.37890625 C2.48394531 2.25386719 1.75304687 2.12882812 1 2 C0.67 1.34 0.34 0.68 0 0 Z " fill="#FDD55F" transform="translate(685,315)"/>
<path d="M0 0 C0.33 0 0.66 0 1 0 C1.01030746 1.05600403 1.02061493 2.11200806 1.03123474 3.20001221 C1.12894812 13.1469375 1.23168032 23.09379995 1.33933926 33.04062271 C1.3945274 38.15450139 1.44794089 43.26838583 1.49731445 48.38232422 C1.54501853 53.31660688 1.59736361 58.2508204 1.65294075 63.18502045 C1.6733369 65.06847158 1.69205449 66.95194166 1.70907402 68.83542633 C1.73317865 71.4714086 1.76322499 74.10726067 1.79467773 76.74316406 C1.8004332 77.52359573 1.80618866 78.3040274 1.81211853 79.10810852 C1.85912737 82.56913428 2.07667307 85.66876536 3 89 C0.03423405 86.16318039 -0.96536596 84.9109894 -1.12698364 80.65991211 C-1.13295524 79.19906797 -1.13330383 77.73819486 -1.12939453 76.27734375 C-1.13114685 75.4804715 -1.13289917 74.68359924 -1.13470459 73.86257935 C-1.13911628 71.22086427 -1.1361875 68.5792158 -1.1328125 65.9375 C-1.13348574 64.10668932 -1.13445593 62.27587873 -1.13571167 60.44506836 C-1.13718772 56.60497183 -1.13503706 52.76489853 -1.13037109 48.92480469 C-1.12467386 43.99486949 -1.12795336 39.06498874 -1.13394356 34.13505554 C-1.13755167 30.3536335 -1.13640943 26.57222443 -1.13381577 22.790802 C-1.13314719 20.97266636 -1.13397251 19.15452955 -1.13629532 17.33639526 C-1.13882592 14.79845038 -1.13497545 12.26059448 -1.12939453 9.72265625 C-1.13141876 8.96622833 -1.13344299 8.20980042 -1.13552856 7.43045044 C-1.1142643 2.22852861 -1.1142643 2.22852861 0 0 Z " fill="#C2282E" transform="translate(300,588)"/>
<path d="M0 0 C0.33 0.99 0.66 1.98 1 3 C-0.66666667 4.66666667 -2.33333333 6.33333333 -4 8 C-4.721875 8.763125 -5.44375 9.52625 -6.1875 10.3125 C-8 12 -8 12 -10 12 C-9.77139942 13.46184058 -9.51629608 14.91955419 -9.25 16.375 C-9.11078125 17.18710937 -8.9715625 17.99921875 -8.828125 18.8359375 C-8.18966208 21.15361838 -8.18966208 21.15361838 -6.046875 22.2265625 C-5.37140625 22.48179687 -4.6959375 22.73703125 -4 23 C-3.34 23.33 -2.68 23.66 -2 24 C-2 24.66 -2 25.32 -2 26 C-1.34 26 -0.68 26 0 26 C0 26.66 0 27.32 0 28 C0.66 28 1.32 28 2 28 C3.62109375 29.6796875 3.62109375 29.6796875 5.4375 31.875 C7.58400884 34.46193722 9.16776562 36.11184374 12 38 C12.33 38.99 12.66 39.98 13 41 C14.98571881 42.80597702 17.0736672 44.43261827 19.1875 46.0859375 C21.34358057 48.36283293 21.66215515 49.92772342 22 53 C15.74850895 47.84208934 10.07685428 42.19126192 4.375 36.4375 C3.446875 35.50486328 2.51875 34.57222656 1.5625 33.61132812 C-0.16474021 31.87542697 -1.89094423 30.13849367 -3.61572266 28.40014648 C-5.310691 26.69389686 -7.02031035 25.00214702 -8.73974609 23.32055664 C-11.46422682 20.52338778 -11.91178392 19.64980595 -12.4375 15.77734375 C-11.84596893 10.67010674 -9.70462396 8.88748345 -6 5.5625 C-5.14148438 4.75135742 -5.14148438 4.75135742 -4.265625 3.92382812 C-2.85912094 2.59937013 -1.43155201 1.29734401 0 0 Z " fill="#F7C82D" transform="translate(436,462)"/>
<path d="M0 0 C0.8871167 -0.00249756 1.7742334 -0.00499512 2.68823242 -0.00756836 C5.26615191 -0.01351539 7.84395387 -0.01194166 10.421875 -0.0078125 C11.19219055 -0.00979645 11.9625061 -0.0117804 12.75616455 -0.01382446 C17.66844488 0.00693733 22.38576621 0.43138864 27.25 1.125 C25.25 3.125 25.25 3.125 22.50387573 3.36550903 C21.33583405 3.36106781 20.16779236 3.35662659 18.96435547 3.35205078 C18.32032776 3.35234283 17.67630005 3.35263489 17.01275635 3.35293579 C14.88076373 3.35154074 12.74911918 3.33597174 10.6171875 3.3203125 C9.14031159 3.31658298 7.66343322 3.31373572 6.18655396 3.31173706 C2.29682602 3.30409574 -1.59275288 3.28444308 -5.48242188 3.2623291 C-9.45050032 3.24188135 -13.41860282 3.23273764 -17.38671875 3.22265625 C-25.17454716 3.20119756 -32.96225271 3.16705572 -40.75 3.125 C-40.75 2.465 -40.75 1.805 -40.75 1.125 C-27.17344184 0.12462203 -13.60639725 0.01347532 0 0 Z " fill="#FDD2D1" transform="translate(355.75,313.875)"/>
<path d="M0 0 C2.76740335 -0.77227173 2.76740335 -0.77227173 5 -2 C5.495 -1.01 5.495 -1.01 6 0 C7.65 -0.66 9.3 -1.32 11 -2 C11.66 -1.34 12.32 -0.68 13 0 C15.40816306 0.26179204 15.40816306 0.26179204 18.20703125 0.16015625 C19.26349854 0.14855469 20.31996582 0.13695312 21.40844727 0.125 C23.09345337 0.0940625 23.09345337 0.0940625 24.8125 0.0625 C33.61137665 -0.02769992 42.24532353 0.02532429 51 1 C51 1.33 51 1.66 51 2 C43.58383054 2.15544999 36.16755047 2.3035873 28.75106049 2.4429636 C25.30547716 2.5079332 21.85997442 2.5752098 18.41455078 2.64819336 C-20.08537179 3.45927541 -20.08537179 3.45927541 -33 0 C-33 -0.33 -33 -0.66 -33 -1 C-6.53591682 -2.61436673 -6.53591682 -2.61436673 0 0 Z " fill="#BF0C10" transform="translate(363,675)"/>
<path d="M0 0 C4.92302787 4.13204208 9.57106602 8.42247434 14.11279297 12.9675293 C14.78520523 13.63658295 15.45761749 14.3056366 16.15040588 14.9949646 C18.35029533 17.18543006 20.54646559 19.3795763 22.7421875 21.57421875 C24.27671123 23.10552668 25.81130914 24.63676027 27.34597778 26.16792297 C30.55013793 29.36611529 33.75224454 32.56634768 36.953125 35.76782227 C41.06062296 39.87542235 45.17498611 43.97607178 49.29110527 48.07503033 C52.45656011 51.22939265 55.61748592 54.38826304 58.77713394 57.54844093 C60.29302906 59.06315416 61.81055022 60.57624185 63.3297081 62.08768272 C65.44575637 64.19397597 67.55542518 66.30645902 69.66357422 68.4206543 C70.29418259 69.04564316 70.92479095 69.67063202 71.57450867 70.31455994 C75.88583773 74.65751318 75.88583773 74.65751318 77 78 C76.34 78 75.68 78 75 78 C73.484375 76.42578125 73.484375 76.42578125 71.75 74.3125 C69.58102826 71.75365111 67.59275827 69.66063189 65 67.5 C62.53747594 65.44789662 60.67653293 63.54785111 58.625 61.125 C56.24375591 58.32415343 53.80698414 55.87347307 51 53.5 C47.57221795 50.59297714 44.68998658 47.46073423 41.78125 44.04296875 C37.68008433 39.33921953 33.24395271 34.97849553 28.4375 31 C25.19248081 28.28719352 22.48762432 25.26450803 19.7734375 22.02734375 C17.12795747 19.00310557 14.2522199 16.22558094 11.38183594 13.41625977 C9.64734065 11.71808511 7.91737689 10.0153777 6.1875 8.3125 C5.59001953 7.73177734 4.99253906 7.15105469 4.37695312 6.55273438 C2.87985327 5.07274424 1.43511269 3.54017218 0 2 C0 1.34 0 0.68 0 0 Z " fill="#F1D9B5" transform="translate(437,495)"/>
<path d="M0 0 C0.33 0 0.66 0 1 0 C1 1.98 1 3.96 1 6 C1.94934921 6.0154612 1.94934921 6.0154612 2.9178772 6.03123474 C9.57033499 6.14033478 16.22268506 6.25483331 22.875 6.37231445 C25.34991173 6.41533538 27.82484691 6.4570298 30.29980469 6.49731445 C56.69257354 6.92867327 56.69257354 6.92867327 68 8 C68 8.33 68 8.66 68 9 C59.5768788 9.04631753 51.15381071 9.08186618 42.73059368 9.10362434 C38.81945488 9.11406657 34.90840314 9.12823372 30.99731445 9.15087891 C27.22368831 9.17259173 23.45014596 9.18456532 19.67646217 9.18975449 C18.23593641 9.19345306 16.79541529 9.20067536 15.35492516 9.21146011 C13.33911986 9.22595347 11.32323044 9.22681674 9.30737305 9.22705078 C7.58528877 9.23371262 7.58528877 9.23371262 5.82841492 9.24050903 C3 9 3 9 0 7 C-0.1875 3.375 -0.1875 3.375 0 0 Z " fill="#F23A3F" transform="translate(310,316)"/>
<path d="M0 0 C22.44 0 44.88 0 68 0 C68.495 1.98 68.495 1.98 69 4 C68.34 4.66 67.68 5.32 67 6 C67 5.01 67 4.02 67 3 C65.82000175 3.00761353 65.82000175 3.00761353 64.61616516 3.01538086 C56.70536129 3.04407117 48.82212936 2.87287757 40.91796875 2.5625 C39.73777664 2.51810791 38.55758453 2.47371582 37.34162903 2.42797852 C33.62349504 2.28760466 29.90550043 2.14386342 26.1875 2 C23.64519079 1.90342174 21.10287314 1.80706558 18.56054688 1.7109375 C12.37359807 1.47652232 6.18675965 1.23935279 0 1 C0 0.67 0 0.34 0 0 Z " fill="#F54042" transform="translate(439,312)"/>
<path d="M0 0 C5.71085294 -0.02481154 11.42167414 -0.04291275 17.13256836 -0.05493164 C19.07332913 -0.05994485 21.01408616 -0.06675712 22.95483398 -0.07543945 C25.75245084 -0.08763732 28.55001755 -0.09325855 31.34765625 -0.09765625 C32.2083522 -0.10281754 33.06904816 -0.10797882 33.95582581 -0.11329651 C38.74729665 -0.11373768 43.27500764 0.19438183 48 1 C47.67 1.66 47.34 2.32 47 3 C40.59809806 4.35281965 33.79074588 4.13851149 27.2734375 4.09765625 C26.39974518 4.0962413 25.52605286 4.09482635 24.62588501 4.09336853 C21.87555297 4.08783674 19.12530682 4.07529774 16.375 4.0625 C14.49349077 4.05747616 12.61198025 4.05291481 10.73046875 4.04882812 C6.15361348 4.03788979 1.57682123 4.02067362 -3 4 C-3 3.67 -3 3.34 -3 3 C8.22 2.67 19.44 2.34 31 2 C20.77 1.67 10.54 1.34 0 1 C0 0.67 0 0.34 0 0 Z " fill="#FDA5A5" transform="translate(386,314)"/>
<path d="M0 0 C0.66 0.33 1.32 0.66 2 1 C-7.57 10.57 -17.14 20.14 -27 30 C-25.04783565 33.90432869 -23.12613393 36.03839944 -20 39 C-20.33 39.66 -20.66 40.32 -21 41 C-24.3 37.7 -27.6 34.4 -31 31 C-24.89334902 23.67201883 -18.33167626 17.08791579 -11.09765625 10.875 C-7.23301927 7.42057589 -3.62608066 3.70162401 0 0 Z " fill="#EAD2B0" transform="translate(577,454)"/>
<path d="M0 0 C-0.33 0.99 -0.66 1.98 -1 3 C-5.52173913 4.13043478 -5.52173913 4.13043478 -8.0625 3.4375 C-10.65258744 2.85264155 -11.69845484 3.81210573 -14 5 C-14.99 4.67 -15.98 4.34 -17 4 C-19.45496667 4.05823497 -19.45496667 4.05823497 -22.0625 4.375 C-22.94035156 4.46523438 -23.81820313 4.55546875 -24.72265625 4.6484375 C-27.02480737 4.88510438 -27.02480737 4.88510438 -29 6 C-29.66 5.34 -30.32 4.68 -31 4 C-33.80529745 3.97903025 -33.80529745 3.97903025 -36.9375 4.375 C-39.99108359 4.6940865 -42.92890795 5 -46 5 C-43.62137896 2.62137896 -42.86322692 2.6700433 -39.6015625 2.40234375 C-38.70469727 2.32870605 -37.80783203 2.25506836 -36.88378906 2.17919922 C-31.05756057 1.81715624 -25.22554571 1.63898716 -19.390625 1.48242188 C-14.93059892 1.32483429 -10.79461809 1.07703635 -6.4765625 -0.09765625 C-3 -1 -3 -1 0 0 Z " fill="#F54145" transform="translate(489,319)"/>
<path d="M0 0 C0 3 0 3 -2.125 5.453125 C-3.0750989 6.39380699 -4.03401237 7.32564161 -5 8.25 C-5.50257324 8.74161621 -6.00514648 9.23323242 -6.52294922 9.73974609 C-9.92004051 13.03720959 -13.42834179 16.17866841 -17.03125 19.25 C-19.3244997 21.28844418 -21.4699499 23.4412159 -23.625 25.625 C-30.33796296 32.38425926 -30.33796296 32.38425926 -34 35 C-34.99 34.67 -35.98 34.34 -37 34 C-36.25556641 33.36384766 -36.25556641 33.36384766 -35.49609375 32.71484375 C-32.05293929 29.74210128 -28.68790025 26.7467991 -25.5 23.5 C-23.12957643 21.08667283 -20.69263692 18.82728147 -18.125 16.625 C-14.23471962 13.27860348 -10.65654282 9.67514549 -7.0546875 6.0234375 C-4.82995378 3.83254004 -2.50778739 1.86061645 0 0 Z " fill="#EFD8D7" transform="translate(363,466)"/>
<path d="M0 0 C0.33 0 0.66 0 1 0 C1 12.87 1 25.74 1 39 C1.99 39.33 2.98 39.66 4 40 C3.67 40.99 3.34 41.98 3 43 C5.31049586 45.75482198 6.57385872 46.89772609 10.125 47.75 C12.85110535 48.02887654 12.85110535 48.02887654 15 48 C15.33 47.01 15.66 46.02 16 45 C17.485 45.495 17.485 45.495 19 46 C16.15695013 48.84304987 13.99733936 50.32780773 10 50.5625 C6.57083266 50.39395869 5.94808645 49.95913189 3.0625 47.6875 C0.46825869 44.30712497 -0.12596284 41.9456271 -0.11352539 37.80395508 C-0.11344986 36.96331009 -0.11337433 36.1226651 -0.11329651 35.25654602 C-0.10813522 34.35333115 -0.10297394 33.45011627 -0.09765625 32.51953125 C-0.0962413 31.59154221 -0.09482635 30.66355316 -0.09336853 29.70744324 C-0.08776937 26.74242942 -0.07521704 23.77749101 -0.0625 20.8125 C-0.05748489 18.80273547 -0.052922 16.79296975 -0.04882812 14.78320312 C-0.03780021 9.85543968 -0.02053617 4.92773263 0 0 Z " fill="#A9343C" transform="translate(299,463)"/>
<path d="M0 0 C-2.5043368 2.5043368 -3.40899179 2.28126779 -6.875 2.37890625 C-7.86113281 2.41306641 -8.84726562 2.44722656 -9.86328125 2.48242188 C-11.41595703 2.52206055 -11.41595703 2.52206055 -13 2.5625 C-19.63035811 2.76251722 -26.18061476 3.07240457 -32.77636719 3.78833008 C-35.73231205 4.06970955 -38.65733025 4.09700779 -41.625 4.0625 C-42.64851563 4.05347656 -43.67203125 4.04445313 -44.7265625 4.03515625 C-45.47679687 4.02355469 -46.22703125 4.01195312 -47 4 C-47 3.67 -47 3.34 -47 3 C-21.88116691 -0.10263997 -21.88116691 -0.10263997 -10.5625 -0.75 C-9.83111816 -0.79439209 -9.09973633 -0.83878418 -8.34619141 -0.88452148 C-5.22317916 -1.03815536 -2.99803711 -0.9993457 0 0 Z " fill="#F74C50" transform="translate(480,319)"/>
<path d="M0 0 C0 3 0 3 -1.6171875 4.97363281 C-2.36226562 5.70936523 -3.10734375 6.44509766 -3.875 7.203125 C-5.10669922 8.42708984 -5.10669922 8.42708984 -6.36328125 9.67578125 C-7.23339844 10.52527344 -8.10351562 11.37476563 -9 12.25 C-9.83917969 13.08402344 -10.67835938 13.91804688 -11.54296875 14.77734375 C-24.86163553 27.93081777 -24.86163553 27.93081777 -29 30 C-27.57937485 26.7731002 -25.85754559 24.60057488 -23.375 22.109375 C-22.66859375 21.40039062 -21.9621875 20.69140625 -21.234375 19.9609375 C-20.49703125 19.23132813 -19.7596875 18.50171875 -19 17.75 C-18.26265625 17.00492187 -17.5253125 16.25984375 -16.765625 15.4921875 C-16.05921875 14.78835938 -15.3528125 14.08453125 -14.625 13.359375 C-13.97789062 12.71452148 -13.33078125 12.06966797 -12.6640625 11.40527344 C-11 10 -11 10 -9 10 C-8.61714844 9.11054688 -8.61714844 9.11054688 -8.2265625 8.203125 C-6.88183502 5.78775462 -5.50785633 4.48788294 -3.375 2.75 C-2.74335937 2.22921875 -2.11171875 1.7084375 -1.4609375 1.171875 C-0.73777344 0.59179688 -0.73777344 0.59179688 0 0 Z " fill="#EFDCBD" transform="translate(709,328)"/>
<path d="M0 0 C6.13053511 -0.32712342 10.62669111 -0.39366878 16 3 C16 3.33 16 3.66 16 4 C12.87696198 4.51277829 9.75133678 5.00776825 6.625 5.5 C5.75488281 5.64308594 4.88476562 5.78617187 3.98828125 5.93359375 C-2.05564276 6.87375971 -7.88700101 7.17771303 -14 7 C-14 6.67 -14 6.34 -14 6 C-8.06 5.505 -8.06 5.505 -2 5 C-2 4.34 -2 3.68 -2 3 C-0.35 2.67 1.3 2.34 3 2 C2.01 1.34 1.02 0.68 0 0 Z " fill="#FB676A" transform="translate(443,314)"/>
<path d="M0 0 C3.87915244 0.57468925 6.14756605 2.37884447 9 5 C9.33 5.99 9.66 6.98 10 8 C11.98571881 9.80597702 14.0736672 11.43261827 16.1875 13.0859375 C18.34358057 15.36283293 18.66215515 16.92772342 19 20 C14.28619206 16.14324805 9.89174933 12.0281064 5.5625 7.75 C5.01819336 7.21858398 4.47388672 6.68716797 3.91308594 6.13964844 C2.56872207 4.79870752 1.27925552 3.40318996 0 2 C0 1.34 0 0.68 0 0 Z " fill="#F6C42F" transform="translate(439,495)"/>
<path d="M0 0 C0 3.98220896 -1.32208355 4.80602572 -4 7.6875 C-4.81339844 8.56792969 -5.62679688 9.44835937 -6.46484375 10.35546875 C-9.42882866 13.44732974 -12.46325274 16.4543223 -15.56640625 19.40625 C-17.22292112 20.89055032 -17.22292112 20.89055032 -17 23 C-18.98 23 -20.96 23 -23 23 C-19.74294414 18.82689717 -16.29585255 15.43755618 -12.26953125 12.01171875 C-7.9834619 8.21253508 -4.011255 4.08523307 0 0 Z " fill="#FACD3D" transform="translate(460,439)"/>
<path d="M0 0 C6.72604133 -0.05080039 13.45203298 -0.08577579 20.17822266 -0.10986328 C22.46535084 -0.11990733 24.75246623 -0.13354508 27.03955078 -0.15087891 C30.33108686 -0.17519708 33.62245282 -0.18649924 36.9140625 -0.1953125 C37.93303619 -0.20563507 38.95200989 -0.21595764 40.00186157 -0.22659302 C45.0747036 -0.22739081 49.25169376 -0.03297852 54 2 C53.34 2.66 52.68 3.32 52 4 C50.25 3.6875 50.25 3.6875 48 3 C42.737767 1.91169993 37.57737746 1.78432861 32.2265625 1.68359375 C30.8409462 1.6524221 30.8409462 1.6524221 29.42733765 1.62062073 C26.49329656 1.55553881 23.55917038 1.49643357 20.625 1.4375 C18.62889765 1.3942754 16.63280373 1.35065988 14.63671875 1.30664062 C9.75789844 1.1999001 4.87899301 1.09851752 0 1 C0 0.67 0 0.34 0 0 Z " fill="#FD8D8C" transform="translate(385,313)"/>
<path d="M0 0 C0.33 0.66 0.66 1.32 1 2 C-2.50939735 6.18474529 -6.08832313 10.1814583 -10 14 C-10.63164062 14.67675781 -11.26328125 15.35351562 -11.9140625 16.05078125 C-12.60242188 16.77652344 -13.29078125 17.50226563 -14 18.25 C-14.639375 18.93578125 -15.27875 19.6215625 -15.9375 20.328125 C-18.30574262 22.24783682 -20.00566464 22.64650208 -23 23 C-15.33333333 15.33333333 -7.66666667 7.66666667 0 0 Z " fill="#FACE3A" transform="translate(484,416)"/>
<path d="M0 0 C-1.42184886 3.27582381 -3.13329801 5.32390376 -5.73828125 7.75 C-6.84526367 8.78640625 -6.84526367 8.78640625 -7.97460938 9.84375 C-8.74611328 10.5553125 -9.51761719 11.266875 -10.3125 12 C-11.07240234 12.7115625 -11.83230469 13.423125 -12.61523438 14.15625 C-16.30170037 17.58969183 -19.99769742 20.93236688 -24 24 C-22.46347997 20.36120325 -20.27579241 18.01785354 -17.5 15.234375 C-16.1696875 13.90019531 -16.1696875 13.90019531 -14.8125 12.5390625 C-13.4203125 11.15847656 -13.4203125 11.15847656 -12 9.75 C-11.071875 8.81414062 -10.14375 7.87828125 -9.1875 6.9140625 C-8.300625 6.02976562 -7.41375 5.14546875 -6.5 4.234375 C-5.6853125 3.42194336 -4.870625 2.60951172 -4.03125 1.77246094 C-2 0 -2 0 0 0 Z " fill="#EAD3B3" transform="translate(680,357)"/>
<path d="M0 0 C0 3 0 3 -2.5625 5.890625 C-3.69974132 7.01914154 -4.84613586 8.13848529 -6 9.25 C-6.59216309 9.82830566 -7.18432617 10.40661133 -7.79443359 11.00244141 C-9.52024171 12.6783897 -11.25800277 14.34090567 -13 16 C-13.83789062 16.80695313 -14.67578125 17.61390625 -15.5390625 18.4453125 C-19.3926846 22.01027377 -19.3926846 22.01027377 -21 23 C-21.99 22.67 -22.98 22.34 -24 22 C-23.50371094 21.57589844 -23.00742187 21.15179688 -22.49609375 20.71484375 C-19.05293929 17.74210128 -15.68790025 14.7467991 -12.5 11.5 C-9.34379896 8.28562014 -6.01443548 5.32130932 -2.6015625 2.3828125 C-1.71147181 1.61429517 -0.83152881 0.83152881 0 0 Z " fill="#F3DAD7" transform="translate(503,334)"/>
<path d="M0 0 C0.33 0 0.66 0 1 0 C1 1.98 1 3.96 1 6 C2.7015625 5.9690625 2.7015625 5.9690625 4.4375 5.9375 C9.01373431 5.9375 13.46600358 6.41851692 18 7 C19.16208984 7.14308594 19.16208984 7.14308594 20.34765625 7.2890625 C22.23230746 7.52173549 24.11623622 7.76024825 26 8 C26 8.33 26 8.66 26 9 C22.22923111 9.05799124 18.45857666 9.09359306 14.6875 9.125 C13.61564453 9.14175781 12.54378906 9.15851563 11.43945312 9.17578125 C10.41142578 9.18222656 9.38339844 9.18867188 8.32421875 9.1953125 C7.37635498 9.20578613 6.42849121 9.21625977 5.4519043 9.22705078 C3 9 3 9 0 7 C-0.1875 3.375 -0.1875 3.375 0 0 Z " fill="#EC3338" transform="translate(310,316)"/>
<path d="M0 0 C0 3.90523355 -0.95198622 6.66616428 -3.375 9.75 C-5.25163188 11.19356299 -6.71677016 11.44648973 -9 12 C-11.2072358 13.48800372 -11.2072358 13.48800372 -13 15 C-13.66 14.67 -14.32 14.34 -15 14 C-14.33613281 13.40832031 -13.67226563 12.81664062 -12.98828125 12.20703125 C-8.55061038 8.2358017 -4.14213205 4.28020312 0 0 Z " fill="#F8CD3D" transform="translate(500,401)"/>
<path d="M0 0 C3.63 0 7.26 0 11 0 C10 3 10 3 8 4 C5.89471067 4.08543895 3.78668843 4.10714725 1.6796875 4.09765625 C0.42285156 4.09443359 -0.83398438 4.09121094 -2.12890625 4.08789062 C-3.44761719 4.07951172 -4.76632812 4.07113281 -6.125 4.0625 C-7.46484211 4.05748489 -8.804686 4.05292201 -10.14453125 4.04882812 C-13.42973206 4.03701086 -16.71484397 4.02053617 -20 4 C-20 3.67 -20 3.34 -20 3 C-11.42 2.67 -2.84 2.34 6 2 C3.03 1.505 3.03 1.505 0 1 C0 0.67 0 0.34 0 0 Z " fill="#FDC0BF" transform="translate(375,314)"/>
<path d="M0 0 C0.99 0.33 1.98 0.66 3 1 C1.68 2.32 0.36 3.64 -1 5 C0.55500981 8.81684226 3.03595495 11.19195732 6 14 C5.67 14.66 5.34 15.32 5 16 C1.7 12.7 -1.6 9.4 -5 6 C-3.35 4.02 -1.7 2.04 0 0 Z " fill="#EADBC4" transform="translate(551,479)"/>
<path d="M0 0 C0.99 0.33 1.98 0.66 3 1 C2.67 1.99 2.34 2.98 2 4 C4.31049586 6.75482198 5.57385872 7.89772609 9.125 8.75 C11.85110535 9.02887654 11.85110535 9.02887654 14 9 C14.33 8.01 14.66 7.02 15 6 C15.99 6.33 16.98 6.66 18 7 C15.15695013 9.84304987 12.99733936 11.32780773 9 11.5625 C5.67815091 11.38004996 4.88440494 10.91812017 2 8.875 C-0.29742742 5.57244809 -0.45761159 3.9354597 0 0 Z " fill="#A41218" transform="translate(300,502)"/>
<path d="M0 0 C0.33 0.99 0.66 1.98 1 3 C0.01 3.66 -0.98 4.32 -2 5 C-2 4.34 -2 3.68 -2 3 C-6.455 3.495 -6.455 3.495 -11 4 C-10.67 2.68 -10.34 1.36 -10 0 C-6.7169902 -1.6415049 -3.57454967 -0.51888624 0 0 Z " fill="#F03C3E" transform="translate(502,319)"/>
<path d="M0 0 C0.33 0.99 0.66 1.98 1 3 C-1.64406723 5.72183391 -4.20554062 8.17253988 -7.25 10.4375 C-10.37983971 13.35394155 -10.80503409 14.80823286 -11 19 C-11.33 19 -11.66 19 -12 19 C-12.71619521 13.08392913 -12.71619521 13.08392913 -10.875 10.29736328 C-9.31627081 8.62852855 -7.69936094 7.08771471 -6 5.5625 C-5.14148438 4.75135742 -5.14148438 4.75135742 -4.265625 3.92382812 C-2.85912094 2.59937013 -1.43155201 1.29734401 0 0 Z " fill="#F8D456" transform="translate(436,462)"/>
<path d="M0 0 C0.99 0.33 1.98 0.66 3 1 C-0.63 4.63 -4.26 8.26 -8 12 C-8.33 11.01 -8.66 10.02 -9 9 C-6.03 6.03 -3.06 3.06 0 0 Z " fill="#E4D2BB" transform="translate(623,410)"/>
<path d="M0 0 C1.60379341 -0.05416188 3.20811406 -0.09286638 4.8125 -0.125 C5.70582031 -0.14820313 6.59914063 -0.17140625 7.51953125 -0.1953125 C10 0 10 0 13 2 C7.75614911 3.7479503 3.52677733 4.19392201 -2 4 C-2 3.67 -2 3.34 -2 3 C-0.35 2.67 1.3 2.34 3 2 C2.01 1.34 1.02 0.68 0 0 Z " fill="#FC7173" transform="translate(443,314)"/>
<path d="M0 0 C-1.46966358 3.39859703 -3.38037514 5.64963709 -6 8.25 C-6.70125 8.95640625 -7.4025 9.6628125 -8.125 10.390625 C-10 12 -10 12 -12 12 C-10.53033642 8.60140297 -8.61962486 6.35036291 -6 3.75 C-5.29875 3.04359375 -4.5975 2.3371875 -3.875 1.609375 C-2 0 -2 0 0 0 Z " fill="#FDCE4F" transform="translate(675,348)"/>
<path d="M0 0 C0.33 0.66 0.66 1.32 1 2 C-2.3810038 6.13621084 -5.66590534 9.81316569 -10 13 C-10.66 12.67 -11.32 12.34 -12 12 C-8.04 8.04 -4.08 4.08 0 0 Z " fill="#F8CC4A" transform="translate(484,416)"/>
<path d="M0 0 C0.33 0.99 0.66 1.98 1 3 C0.278125 3.556875 -0.44375 4.11375 -1.1875 4.6875 C-3.97457299 6.97909334 -6.48641528 9.41459857 -9 12 C-9.66 11.67 -10.32 11.34 -11 11 C-7.37 7.37 -3.74 3.74 0 0 Z " fill="#F8C63D" transform="translate(555,349)"/>
<path d="M0 0 C2.06309376 0.11478413 4.12548354 0.24226198 6.1875 0.375 C7.33605469 0.44460938 8.48460937 0.51421875 9.66796875 0.5859375 C12.79959117 0.97509574 15.15285809 1.6809851 18 3 C18 3.33 18 3.66 18 4 C11.58518742 4.42765417 6.11404596 2.85743168 0 1 C0 0.67 0 0.34 0 0 Z " fill="#C40C11" transform="translate(310,670)"/>
<path d="M0 0 C0.33 0.66 0.66 1.32 1 2 C-3.30769231 7.78461538 -3.30769231 7.78461538 -6.8125 8.875 C-7.8953125 8.936875 -7.8953125 8.936875 -9 9 C-6.31941902 5.42589203 -3.57410797 2.68058098 0 0 Z " fill="#F8CB47" transform="translate(531,372)"/>
<path d="M0 0 C0.66 0.33 1.32 0.66 2 1 C-0.97 3.97 -3.94 6.94 -7 10 C-7.99 9.67 -8.98 9.34 -10 9 C-6.7 6.03 -3.4 3.06 0 0 Z " fill="#DB333B" transform="translate(372,519)"/>
<path d="M0 0 C-1.13819851 3.41459553 -2.24005518 4.3324158 -4.9375 6.625 C-5.64777344 7.23601562 -6.35804688 7.84703125 -7.08984375 8.4765625 C-9 10 -9 10 -11 11 C-10.45418801 7.20450741 -8.94590705 5.69020705 -6.0625 3.25 C-5.35222656 2.63640625 -4.64195312 2.0228125 -3.91015625 1.390625 C-2 0 -2 0 0 0 Z " fill="#9F1B1F" transform="translate(410,421)"/>
<path d="M0 0 C0.99 0.33 1.98 0.66 3 1 C-0.32307692 5.8 -0.32307692 5.8 -3.75 6.8125 C-4.4925 6.874375 -5.235 6.93625 -6 7 C-4.02 4.69 -2.04 2.38 0 0 Z " fill="#FCBE2B" transform="translate(601,306)"/>
<path d="M0 0 C0.66 0.33 1.32 0.66 2 1 C-1.3 4.3 -4.6 7.6 -8 11 C-8.33 10.01 -8.66 9.02 -9 8 C-6.03 5.36 -3.06 2.72 0 0 Z " fill="#A71B1D" transform="translate(444,387)"/>
<path d="M0 0 C0 4.38968456 -2.12805101 5.76905739 -5 9 C-5.99 8.67 -6.98 8.34 -8 8 C-5.36 5.36 -2.72 2.72 0 0 Z " fill="#F9CF4A" transform="translate(460,439)"/>
<path d="M0 0 C0.66 0.33 1.32 0.66 2 1 C1.04882866 2.1725131 0.08882991 3.33787015 -0.875 4.5 C-1.40867187 5.1496875 -1.94234375 5.799375 -2.4921875 6.46875 C-2.98976563 6.9740625 -3.48734375 7.479375 -4 8 C-4.66 8 -5.32 8 -6 8 C-4.55746343 4.63408134 -2.66735273 2.48952921 0 0 Z " fill="#D42C33" transform="translate(307,305)"/>
<path d="M0 0 C0.99 0.33 1.98 0.66 3 1 C0.78631706 3.21368294 -0.93016625 4.86552921 -4.11328125 5.265625 C-6.07746787 5.25166986 -8.0402625 5.13286356 -10 5 C-10 4.67 -10 4.34 -10 4 C-5.545 3.505 -5.545 3.505 -1 3 C-0.67 2.01 -0.34 1.02 0 0 Z " fill="#A73337" transform="translate(315,508)"/>
<path d="M0 0 C1.62463842 -0.05395478 3.24978541 -0.09277195 4.875 -0.125 C5.77992188 -0.14820313 6.68484375 -0.17140625 7.6171875 -0.1953125 C10 0 10 0 12 2 C10.02 2.33 8.04 2.66 6 3 C6 2.67 6 2.34 6 2 C3.03 1.505 3.03 1.505 0 1 C0 0.67 0 0.34 0 0 Z " fill="#FC9595" transform="translate(427,314)"/>
<path d="M0 0 C0.99 0.33 1.98 0.66 3 1 C0.03 3.475 0.03 3.475 -3 6 C-2.42655063 3.13275314 -2.1385485 2.1385485 0 0 Z " fill="#E2D7CA" transform="translate(617,416)"/>
<path d="M0 0 C0.33 0.99 0.66 1.98 1 3 C-1.97 5.475 -1.97 5.475 -5 8 C-5.66 7.67 -6.32 7.34 -7 7 C-4.69 4.69 -2.38 2.38 0 0 Z " fill="#F8CE55" transform="translate(539,364)"/>
<path d="M0 0 C2.97851562 0.53710938 2.97851562 0.53710938 5.95703125 1.07421875 C5.95703125 1.73421875 5.95703125 2.39421875 5.95703125 3.07421875 C2.32703125 3.07421875 -1.30296875 3.07421875 -5.04296875 3.07421875 C-2.04296875 0.07421875 -2.04296875 0.07421875 0 0 Z " fill="#F24749" transform="translate(496.04296875,317.92578125)"/>
</svg>
